<?xml version="1.0" encoding="UTF-8" standalone="no"?>
<svg
   xmlns:dc="http://purl.org/dc/elements/1.1/"
   xmlns:cc="http://creativecommons.org/ns#"
   xmlns:rdf="http://www.w3.org/1999/02/22-rdf-syntax-ns#"
   xmlns:svg="http://www.w3.org/2000/svg"
   xmlns="http://www.w3.org/2000/svg"
   xmlns:sodipodi="http://sodipodi.sourceforge.net/DTD/sodipodi-0.dtd"
   xmlns:inkscape="http://www.inkscape.org/namespaces/inkscape"
   viewBox="0 -256 1800 1800"
   id="svg3594"
   version="1.1"
   inkscape:version="0.48.3.1 r9886"
   width="100%"
   height="100%"
   sodipodi:docname="ul_font_awesome.svg">
  <metadata
     id="metadata3604">
    <rdf:RDF>
      <cc:Work
         rdf:about="">
        <dc:format>image/svg+xml</dc:format>
        <dc:type
           rdf:resource="http://purl.org/dc/dcmitype/StillImage" />
      </cc:Work>
    </rdf:RDF>
  </metadata>
  <defs
     id="defs3602" />
  <sodipodi:namedview
     pagecolor="#ffffff"
     bordercolor="#666666"
     borderopacity="1"
     objecttolerance="10"
     gridtolerance="10"
     guidetolerance="10"
     inkscape:pageopacity="0"
     inkscape:pageshadow="2"
     inkscape:window-width="640"
     inkscape:window-height="480"
     id="namedview3600"
     showgrid="false"
     inkscape:zoom="0.70710678"
     inkscape:cx="-10.667904"
     inkscape:cy="1327.9364"
     inkscape:window-x="0"
     inkscape:window-y="25"
     inkscape:window-maximized="0"
     inkscape:current-layer="svg3594" />
  <g
     transform="matrix(1,0,0,-1,4.5932203,1291.0078)"
     id="g3596">
    <path
       d="M 384,128 Q 384,48 328,-8 272,-64 192,-64 112,-64 56,-8 0,48 0,128 q 0,80 56,136 56,56 136,56 80,0 136,-56 56,-56 56,-136 z m 0,512 q 0,-80 -56,-136 -56,-56 -136,-56 -80,0 -136,56 -56,56 -56,136 0,80 56,136 56,56 136,56 80,0 136,-56 56,-56 56,-136 z M 1792,224 V 32 Q 1792,19 1782.5,9.5 1773,0 1760,0 H 544 Q 531,0 521.5,9.5 512,19 512,32 v 192 q 0,13 9.5,22.5 9.5,9.5 22.5,9.5 h 1216 q 13,0 22.5,-9.5 9.5,-9.5 9.5,-22.5 z M 384,1152 q 0,-80 -56,-136 -56,-56 -136,-56 -80,0 -136,56 -56,56 -56,136 0,80 56,136 56,56 136,56 80,0 136,-56 56,-56 56,-136 z M 1792,736 V 544 q 0,-13 -9.5,-22.5 Q 1773,512 1760,512 H 544 q -13,0 -22.5,9.5 Q 512,531 512,544 v 192 q 0,13 9.5,22.5 9.5,9.5 22.5,9.5 h 1216 q 13,0 22.5,-9.5 9.5,-9.5 9.5,-22.5 z m 0,512 v -192 q 0,-13 -9.5,-22.5 -9.5,-9.5 -22.5,-9.5 H 544 q -13,0 -22.5,9.5 -9.5,9.5 -9.5,22.5 v 192 q 0,13 9.5,22.5 9.5,9.5 22.5,9.5 h 1216 q 13,0 22.5,-9.5 9.5,-9.5 9.5,-22.5 z"
       id="path3598"
       inkscape:connector-curvature="0"
       style="fill:currentColor" />
  </g>
</svg>
